<svg width="48" height="48" viewBox="0 0 48 48" fill="none" xmlns="http://www.w3.org/2000/svg">
<path d="M11.616 27.168H21.024V41.76V47.04V47.808C21.984 47.904 23.04 48 24 48C25.056 48 26.016 47.904 26.976 47.808V47.04V41.76V27.168V24.96V20.928H11.616V27.168Z" fill="#54C5F8"/>
<path d="M23.1359 18.048C25.2567 18.048 26.9759 16.3288 26.9759 14.208C26.9759 12.0873 25.2567 10.368 23.1359 10.368C21.0151 10.368 19.2959 12.0873 19.2959 14.208C19.2959 16.3288 21.0151 18.048 23.1359 18.048Z" fill="#54C5F8"/>
<path d="M47.8079 20.928H41.7599C41.7599 20.928 41.7599 20.928 41.7599 21.024H30.4319V27.168H41.7599C40.6079 33.312 36.3839 38.4 30.7199 40.704V47.04C40.7039 44.16 47.9999 34.944 47.9999 24C47.9999 22.944 47.9039 21.888 47.8079 20.928Z" fill="#0A2452"/>
<path d="M6.048 24C6.048 14.016 14.016 6.048 24 6.048C31.584 6.048 38.112 10.752 40.8 17.472H47.136C44.256 7.392 34.944 0 24 0C10.752 0 0 10.752 0 24C0 34.944 7.296 44.16 17.376 47.04V40.704C10.752 38.112 6.048 31.584 6.048 24Z" fill="#0A2452"/>
</svg>
