<svg xmlns="http://www.w3.org/2000/svg"  viewBox="0 0 24 24" fill="none">
  <path d="M13.267 4.20902C13.122 4.07777 12.9314 4.00838 12.7359 4.01566C12.5404 4.02293 12.3555 4.1063 12.2206 4.24797C12.0857 4.38964 12.0115 4.57841 12.0138 4.77401C12.0161 4.96962 12.0948 5.15658 12.233 5.29502L18.484 11.249L3.75 11.249C3.55109 11.249 3.36032 11.328 3.21967 11.4687C3.07902 11.6093 3 11.8001 3 11.999C3 12.1979 3.07902 12.3887 3.21967 12.5293C3.36032 12.67 3.55109 12.749 3.75 12.749L18.484 12.749L12.233 18.704C12.1616 18.7719 12.1043 18.8532 12.0644 18.9432C12.0244 19.0333 12.0026 19.1303 12.0001 19.2288C11.9977 19.3273 12.0146 19.4253 12.05 19.5172C12.0854 19.6091 12.1386 19.6931 12.2065 19.7645C12.2744 19.8359 12.3557 19.8932 12.4457 19.9332C12.5358 19.9731 12.6328 19.9949 12.7313 19.9974C12.8297 19.9999 12.9277 19.9829 13.0197 19.9475C13.1116 19.9121 13.1956 19.8589 13.267 19.791L20.687 12.724C20.8491 12.5697 20.9547 12.3655 20.987 12.144C21.0043 12.0481 21.004 11.9498 20.986 11.854C20.9533 11.6333 20.8477 11.4298 20.686 11.276L13.267 4.20902Z" fill="white"/>
</svg>