<svg xmlns="http://www.w3.org/2000/svg" viewBox="0 0 197 48" fill="none">
  <g clip-path="url(#clip0_81_145)">
    <path d="M76.608 24.384H78.048V29.664C76.704 30.72 74.88 31.296 72.96 31.296C68.736 31.296 65.76 28.32 65.76 24.288C65.76 20.256 68.832 17.28 73.056 17.28C75.168 17.28 76.896 17.952 78.144 19.296L77.28 20.256C76.128 19.104 74.784 18.624 73.152 18.624C69.792 18.624 67.296 21.024 67.296 24.288C67.296 27.552 69.792 29.952 73.152 29.952C74.496 29.952 75.648 29.664 76.704 28.896V24.384H76.608Z" fill="#0A2452"/>
    <path d="M82.272 16.704H83.712V31.296H82.272V16.704Z" fill="#0A2452"/>
    <path d="M87.072 26.016C87.072 22.944 89.28 20.736 92.352 20.736C95.328 20.736 97.632 22.944 97.632 26.016C97.632 29.088 95.424 31.296 92.352 31.296C89.28 31.296 87.072 29.088 87.072 26.016ZM96.096 26.016C96.096 23.616 94.464 21.984 92.256 21.984C90.048 21.984 88.416 23.616 88.416 26.016C88.416 28.416 90.048 30.048 92.256 30.048C94.464 30.048 96.096 28.512 96.096 26.016Z" fill="#0A2452"/>
    <path d="M111.456 26.016C111.456 29.184 109.248 31.296 106.272 31.296C104.544 31.296 103.104 30.528 102.24 29.184V31.2H100.896V16.704H102.336V22.944C103.2 21.6 104.64 20.928 106.272 20.928C109.248 20.832 111.456 22.944 111.456 26.016ZM110.016 26.016C110.016 23.616 108.384 21.984 106.176 21.984C103.968 21.984 102.336 23.616 102.336 26.016C102.336 28.416 103.968 30.048 106.176 30.048C108.384 30.048 110.016 28.512 110.016 26.016Z" fill="#0A2452"/>
    <path d="M122.688 24.864V31.296H121.344V29.664C120.672 30.72 119.52 31.392 117.792 31.392C115.488 31.392 114.048 30.144 114.048 28.416C114.048 26.784 115.104 25.536 118.08 25.536H121.344V24.864C121.344 23.136 120.384 22.176 118.464 22.176C117.12 22.176 115.872 22.656 115.008 23.424L114.336 22.368C115.392 21.504 116.928 20.928 118.56 20.928C121.152 20.832 122.688 22.176 122.688 24.864ZM121.248 28.128V26.4H118.08C116.064 26.4 115.392 27.168 115.392 28.224C115.392 29.376 116.352 30.144 117.984 30.144C119.616 30.24 120.768 29.472 121.248 28.128Z" fill="#0A2452"/>
    <path d="M126.816 16.704H128.256V31.296H126.816V16.704Z" fill="#0A2452"/>
    <path d="M139.488 18.7199H134.688V17.4719H145.824V18.7199H141.024V31.1999H139.584V18.7199H139.488Z" fill="#0A2452"/>
    <path d="M155.52 26.496H146.88C147.072 28.608 148.704 30.048 150.912 30.048C152.16 30.048 153.312 29.568 154.08 28.704L154.848 29.568C153.888 30.624 152.448 31.296 150.816 31.296C147.552 31.296 145.44 29.088 145.44 26.016C145.44 22.944 147.552 20.736 150.528 20.736C153.408 20.736 155.52 22.848 155.52 26.016C155.52 26.208 155.52 26.304 155.52 26.496ZM146.88 25.44H154.176C153.984 23.424 152.544 21.984 150.528 21.984C148.512 21.984 147.072 23.424 146.88 25.44Z" fill="#0A2452"/>
    <path d="M165.696 24.864V31.296H164.352V29.664C163.68 30.72 162.528 31.392 160.8 31.392C158.496 31.392 157.056 30.144 157.056 28.416C157.056 26.784 158.112 25.536 161.088 25.536H164.352V24.864C164.352 23.136 163.392 22.176 161.472 22.176C160.128 22.176 158.88 22.656 158.016 23.424L157.344 22.368C158.4 21.504 159.936 20.928 161.568 20.928C164.16 20.832 165.696 22.176 165.696 24.864ZM164.256 28.128V26.4H160.992C158.976 26.4 158.304 27.168 158.304 28.224C158.304 29.376 159.264 30.144 160.896 30.144C162.624 30.24 163.776 29.472 164.256 28.128Z" fill="#0A2452"/>
    <path d="M186.336 25.248V31.2H184.896V25.344C184.896 23.136 183.84 22.08 181.92 22.08C179.808 22.08 178.464 23.424 178.464 25.824V31.2H177.024V25.344C177.024 23.136 175.968 22.08 174.048 22.08C171.936 22.08 170.592 23.424 170.592 25.824V31.2H169.152V20.928H170.496V22.848C171.264 21.6 172.512 20.928 174.24 20.928C175.968 20.928 177.312 21.696 177.888 23.136C178.656 21.792 180.096 20.928 182.016 20.928C184.704 20.832 186.336 22.272 186.336 25.248Z" fill="#0A2452"/>
    <path d="M188.448 30.048L189.12 28.992C189.984 29.664 191.328 30.144 192.768 30.144C194.688 30.144 195.552 29.472 195.552 28.416C195.552 25.728 188.832 27.84 188.832 23.808C188.832 22.08 190.272 20.832 192.96 20.832C194.304 20.832 195.744 21.216 196.608 21.792L196.032 22.944C195.168 22.272 194.016 22.08 192.96 22.08C191.136 22.08 190.272 22.848 190.272 23.808C190.272 26.592 196.992 24.48 196.992 28.416C196.992 30.24 195.456 31.392 192.768 31.392C190.944 31.296 189.312 30.816 188.448 30.048Z" fill="#0A2452"/>
    <path d="M11.616 27.168H21.024V41.76V47.04V47.808C21.984 47.904 23.04 48 24 48C25.056 48 26.016 47.904 26.976 47.808V47.04V41.76V27.168V24.96V20.928H11.616V27.168Z" fill="#54C5F8"/>
    <path d="M23.1359 18.048C25.2567 18.048 26.9759 16.3288 26.9759 14.208C26.9759 12.0873 25.2567 10.368 23.1359 10.368C21.0151 10.368 19.2959 12.0873 19.2959 14.208C19.2959 16.3288 21.0151 18.048 23.1359 18.048Z" fill="#54C5F8"/>
    <path d="M47.8079 20.928H41.7599C41.7599 20.928 41.7599 20.928 41.7599 21.024H30.4319V27.168H41.7599C40.6079 33.312 36.3839 38.4 30.7199 40.704V47.04C40.7039 44.16 47.9999 34.944 47.9999 24C47.9999 22.944 47.9039 21.888 47.8079 20.928Z" fill="#0A2452"/>
    <path d="M6.048 24C6.048 14.016 14.016 6.048 24 6.048C31.584 6.048 38.112 10.752 40.8 17.472H47.136C44.256 7.392 34.944 0 24 0C10.752 0 0 10.752 0 24C0 34.944 7.296 44.16 17.376 47.04V40.704C10.752 38.112 6.048 31.584 6.048 24Z" fill="#0A2452"/>
  </g>
  <defs>
    <clipPath id="clip0_81_145">
      <rect width="196.896" height="48" fill="white"/>
    </clipPath>
  </defs>
</svg>