<svg viewBox="0 0 18 13" fill="none" xmlns="http://www.w3.org/2000/svg">
<path d="M10.3331 7L10.0996 7.4045H10.5666L10.3331 7ZM9.0001 8.309L9.2336 7.9045H8.7666L9.0001 8.309Z" fill="#EDECEC"/>
<path d="M0 10H18V3H0V10ZM0.147 1.25H17.8535C17.7041 0.880768 17.4479 0.564542 17.1177 0.341841C16.7875 0.119141 16.3983 0.000109463 16 0H2C1.60179 0.000209008 1.2127 0.119287 0.88258 0.341981C0.552458 0.564675 0.29633 0.880847 0.147 1.25Z" fill="#EEEEEE"/>
<path d="M10.5666 5.59542H10.0996L10.3331 5.99992L10.5666 5.59542ZM7.90059 5.59542H7.43359L7.66709 5.99992L7.90059 5.59542ZM9.52209 7.40442L10.0446 6.49992L9.52209 5.59542H8.47809L7.95559 6.49992L8.47809 7.40442H9.52209ZM7.66709 6.99992L7.43359 7.40442H7.90059L7.66709 6.99992ZM9.00009 4.69092L8.76659 5.09542H9.23359L9.00009 4.69092Z" fill="#EDECEC"/>
<path d="M0.147 1.25C0.0502446 1.48823 0.000333449 1.74287 0 2L0 3H18V2C18 1.7345 17.947 1.482 17.853 1.25H0.147Z" fill="#0038B8"/>
<path d="M0.147461 11.75H17.854C17.7046 12.1192 17.4484 12.4355 17.1182 12.6582C16.788 12.8809 16.3988 12.9999 16.0005 13H2.00046C1.60225 12.9998 1.21316 12.8807 0.883041 12.658C0.552919 12.4353 0.296791 12.1192 0.147461 11.75Z" fill="#EEEEEE"/>
<path d="M0.147 11.7499C0.0502446 11.5117 0.000333449 11.257 0 10.9999L0 9.99992H18V10.9999C18 11.2654 17.947 11.5179 17.853 11.7499H0.147ZM8.189 7.90442L9 9.30892L9.811 7.90442H11.4325L10.622 6.49992L11.433 5.09542H9.8115L9 3.69092L8.189 5.09542H6.5675L7.378 6.49992L6.567 7.90442H8.189ZM9 8.30892L8.7665 7.90442H9.2335L9 8.30892ZM10.5665 5.59542L10.333 5.99992L10.0995 5.59592L10.5665 5.59542ZM10.333 6.99992L10.5665 7.40392H10.0995L10.333 6.99992ZM9 4.69092L9.2335 5.09542H8.7665L9 4.69092ZM8.478 5.59542H9.5225L10.0445 6.49992L9.5225 7.40442H8.478L7.9555 6.49992L8.478 5.59542ZM7.9005 5.59542L7.667 5.99992L7.4335 5.59592L7.9005 5.59542ZM7.667 6.99992L7.9005 7.40392H7.4335L7.667 6.99992Z" fill="#0038B8"/>
</svg>
