<svg  viewBox="0 0 18 12" fill="none" xmlns="http://www.w3.org/2000/svg">
<g clip-path="url(#clip0_81_560)">
<path fill-rule="evenodd" clip-rule="evenodd" d="M0 0H18V12H0V0Z" fill="#F7FCFF"/>
<path fill-rule="evenodd" clip-rule="evenodd" d="M0 7.3335V8.3335H18V7.3335H0ZM0 9.1665V10.1665H18V9.1665H0ZM0 3.6665V4.6665H18V3.6665H0ZM0 11V12H18V11H0ZM0 5.5V6.5H18V5.5H0ZM0 0V1H18V0H0ZM0 1.8335V2.8335H18V1.8335H0Z" fill="#E31D1C"/>
<path d="M0 0H11.25V6.5H0V0Z" fill="#2E42A5"/>
<path fill-rule="evenodd" clip-rule="evenodd" d="M0.96858 1.46951L0.560205 1.72401L0.698018 1.27101L0.335205 0.984014H0.809393L0.968018 0.614014L1.15421 0.984014H1.55808L1.24083 1.27101L1.36346 1.72401L0.96858 1.46951ZM3.21858 1.46951L2.8102 1.72401L2.94802 1.27101L2.58577 0.984014H3.05939L3.21802 0.614014L3.40421 0.984014H3.80808L3.49083 1.27101L3.61345 1.72401L3.21858 1.46951ZM5.06021 1.72401L5.46858 1.46901L5.86346 1.72401L5.74083 1.27101L6.05808 0.984014H5.65421L5.46802 0.614014L5.30939 0.984014H4.83577L5.19802 1.27101L5.06021 1.72401ZM7.71858 1.46901L7.31021 1.72401L7.44802 1.27101L7.08577 0.984014H7.55939L7.71802 0.614014L7.90421 0.984014H8.30808L7.99083 1.27101L8.11346 1.72401L7.71858 1.46901ZM0.560205 3.72451L0.96858 3.46951L1.36346 3.72451L1.24083 3.27151L1.55808 2.98451H1.15421L0.968018 2.61451L0.809393 2.98451H0.335205L0.698018 3.27151L0.560205 3.72451ZM3.21858 3.46951L2.8102 3.72451L2.94802 3.27151L2.58577 2.98451H3.05939L3.21802 2.61451L3.40421 2.98451H3.80808L3.49083 3.27151L3.61345 3.72451L3.21858 3.46951ZM5.06021 3.72451L5.46858 3.46951L5.86346 3.72451L5.74083 3.27151L6.05808 2.98451H5.65421L5.46802 2.61451L5.30939 2.98451H4.83577L5.19802 3.27151L5.06021 3.72451ZM7.71858 3.46951L7.31021 3.72451L7.44802 3.27151L7.08577 2.98451H7.55939L7.71802 2.61451L7.90421 2.98451H8.30808L7.99083 3.27151L8.11346 3.72451L7.71858 3.46951ZM0.560205 5.72451L0.96858 5.46951L1.36346 5.72451L1.24083 5.27151L1.55808 4.98451H1.15421L0.968018 4.61451L0.809393 4.98451H0.335205L0.698018 5.27151L0.560205 5.72451ZM3.21858 5.46951L2.8102 5.72451L2.94802 5.27151L2.58577 4.98451H3.05939L3.21802 4.61451L3.40421 4.98451H3.80808L3.49083 5.27151L3.61345 5.72451L3.21858 5.46951ZM5.06021 5.72451L5.46858 5.46951L5.86346 5.72451L5.74083 5.27151L6.05808 4.98451H5.65421L5.46802 4.61451L5.30939 4.98451H4.83577L5.19802 5.27151L5.06021 5.72451ZM7.71858 5.46951L7.31021 5.72451L7.44802 5.27151L7.08577 4.98451H7.55939L7.71802 4.61451L7.90421 4.98451H8.30808L7.99083 5.27151L8.11346 5.72451L7.71858 5.46951ZM9.5602 1.72451L9.96858 1.46951L10.3635 1.72451L10.2408 1.27151L10.5581 0.984514H10.1542L9.96802 0.614514L9.80939 0.984514H9.33521L9.69802 1.27151L9.5602 1.72451ZM9.96858 3.46951L9.5602 3.72451L9.69802 3.27151L9.33521 2.98451H9.80939L9.96802 2.61451L10.1542 2.98451H10.5581L10.2408 3.27151L10.3635 3.72451L9.96858 3.46951ZM9.5602 5.72451L9.96858 5.46951L10.3635 5.72451L10.2408 5.27151L10.5581 4.98451H10.1542L9.96802 4.61451L9.80939 4.98451H9.33521L9.69802 5.27151L9.5602 5.72451ZM2.09358 2.46901L1.68521 2.72401L1.82302 2.27101L1.46021 1.98401H1.93439L2.09302 1.61401L2.27921 1.98401H2.68308L2.36583 2.27101L2.48846 2.72401L2.09358 2.46901ZM3.9352 2.72401L4.34358 2.46901L4.73845 2.72401L4.61583 2.27101L4.93308 1.98401H4.5292L4.34302 1.61401L4.18439 1.98401H3.71021L4.07302 2.27101L3.9352 2.72401ZM6.59358 2.46901L6.18521 2.72401L6.32302 2.27101L5.96077 1.98401H6.43439L6.59302 1.61401L6.77921 1.98401H7.18308L6.86583 2.27101L6.98846 2.72401L6.59358 2.46901ZM1.68521 4.72401L2.09358 4.46901L2.48846 4.72401L2.36583 4.27101L2.68308 3.98401H2.27921L2.09302 3.61401L1.93439 3.98401H1.46021L1.82302 4.27101L1.68521 4.72401ZM4.34358 4.46901L3.9352 4.72401L4.07302 4.27101L3.71077 3.98401H4.18439L4.34302 3.61401L4.5292 3.98401H4.93308L4.61583 4.27101L4.73845 4.72401L4.34358 4.46901ZM6.18521 4.72401L6.59358 4.46901L6.98846 4.72401L6.86583 4.27101L7.18308 3.98401H6.77921L6.59302 3.61401L6.43439 3.98401H5.96077L6.32302 4.27101L6.18521 4.72401ZM8.84358 2.46901L8.43521 2.72401L8.57302 2.27101L8.21077 1.98401H8.68439L8.84302 1.61401L9.02921 1.98401H9.43308L9.11583 2.27101L9.23845 2.72401L8.84358 2.46901ZM8.43521 4.72401L8.84358 4.46901L9.23845 4.72401L9.11583 4.27101L9.43308 3.98401H9.02921L8.84302 3.61401L8.68439 3.98401H8.21077L8.57302 4.27101L8.43521 4.72401Z" fill="#F7FCFF"/>
</g>
<defs>
<clipPath id="clip0_81_560">
<rect width="18" height="12" rx="2" fill="white"/>
</clipPath>
</defs>
</svg>
