<svg viewBox="0 0 14 14" fill="none" xmlns="http://www.w3.org/2000/svg">
<path d="M6.68325 4.70749L2.037 9.58387C1.95944 9.66523 1.91617 9.77333 1.91617 9.88574C1.91617 9.99815 1.95944 10.1062 2.037 10.1876L2.04225 10.1929C2.07985 10.2324 2.12511 10.264 2.17528 10.2855C2.22545 10.307 2.27947 10.3181 2.33406 10.3181C2.38866 10.3181 2.44268 10.307 2.49285 10.2855C2.54301 10.264 2.58828 10.2324 2.62588 10.1929L7.00088 5.60087L11.3741 10.1929C11.4117 10.2324 11.457 10.264 11.5072 10.2855C11.5573 10.307 11.6113 10.3181 11.6659 10.3181C11.7205 10.3181 11.7746 10.307 11.8247 10.2855C11.8749 10.264 11.9202 10.2324 11.9578 10.1929L11.963 10.1876C12.0406 10.1062 12.0838 9.99815 12.0838 9.88574C12.0838 9.77333 12.0406 9.66523 11.963 9.58387L7.31675 4.70749C7.27589 4.6646 7.22675 4.63046 7.1723 4.60713C7.11785 4.58381 7.05924 4.57178 7 4.57178C6.94077 4.57178 6.88215 4.58381 6.8277 4.60713C6.77325 4.63046 6.72411 4.6646 6.68325 4.70749Z" fill="#AEAEB2"/>
</svg>
